# xmcd
#
# Track frame offsets:
#	150
#	13715
#	26455
#	40705
#	53500
#	67826
#	81062
#	95160
#	108658
#	122312
#	134755
#	147121
#	157627
#	169796
#	182411
#
# Disc length: 2607 seconds
#
# Revision: 2
# Processed by: cddbd v1.5.2PL0 Copyright (c) Steve Scherf et al.
# Submitted via: audiograbber 1.83.01
#
DISCID=b30a2d0f
DTITLE=John Lee Hooker - John Lee Hooker
DYEAR=2000
DGENRE=Blues
TTITLE0=1. Crawlin' King  Snake
TTITLE1=2. Weeping Willow Boogie
TTITLE2=3. Boogie Chillen
TTITLE3=4. Bumblee Bee Blues
TTITLE4=5. Hanry' s Swing Club
TTITLE5=6. Hoogie Boogie
TTITLE6=7. Sally Mae
TTITLE7=8. Drifting from Door to Door
TTITLE8=9. Hobo Blues
TTITLE9=10. Miss Sadie Mae
TTITLE10=11. War is over (Goodye California)
TTITLE11=12. Hasting Street Boogie
TTITLE12=13. Burnin'  Hell
TTITLE13=14. Sailing Blues
TTITLE14=15. Momma Poppa Boogie
EXTD=
EXTT0=
EXTT1=
EXTT2=
EXTT3=
EXTT4=
EXTT5=
EXTT6=
EXTT7=
EXTT8=
EXTT9=
EXTT10=
EXTT11=
EXTT12=
EXTT13=
EXTT14=
PLAYORDER=
